Patient5_TMGait_0pt45_1_left_02_GRF.mot
version=1
nRows=39
nColumns=19
inDegrees=no
endheader
time	F1x	F1y	F1z	M1x	M1y	M1z	F2x	F2y	F2z	M2x	M2y	M2z	EC1x	EC1y	EC1z	EC2x	EC2y	EC2z
1.7	3.63	-5.8555	-5.818	1.01	4.679	-10.5779	-58.0901	949.4973	-18.5917	378.3782	43.7109	953.4937	-0.0592	0.0182	-0.0073	-0.0462	0.0165	0.9585
1.7169	1.7074	-2.7113	-3.224	0.38282	2.3792	-5.453	-54.9259	940.5088	-25.207	376.4335	48.6004	936.7594	-0.0592	0.0182	-0.0073	-0.0462	0.0165	0.9585
1.7337	0.48486	-0.68779	-1.226	0.020621	0.72554	-1.849	-49.0624	924.7783	-30.7776	371.2898	51.275	912.7788	-0.0592	0.0182	-0.0073	-0.0462	0.0165	0.9585
1.7506	-0.15221	0.39641	0.084391	-0.14656	-0.293	0.28278	-41.0467	902.0225	-35.2899	362.6564	51.9374	882.0644	-0.0592	0.0182	-0.0073	-0.0462	0.0165	0.9585
1.7674	-0.38659	0.82897	0.81043	-0.19495	-0.81719	1.2854	-32.2705	874.9481	-38.8537	351.6785	51.2855	847.8326	-0.0592	0.0182	-0.0073	-0.0462	0.0165	0.9585
1.7843	-0.3937	0.87931	1.1154	-0.18347	-1.0113	1.5618	-24.4571	848.1602	-41.359	340.4065	49.9676	814.8719	-0.0592	0.0182	-0.0073	-0.0462	0.0165	0.9585
1.8011	-0.29155	0.75633	1.172	-0.15137	-1.0241	1.4493	-18.8073	826.0231	-42.6705	330.8223	48.4035	787.4355	-0.0592	0.0182	-0.0073	-0.0462	0.0165	0.9585
1.818	-0.15034	0.58829	1.1015	-0.11926	-0.95055	1.1857	-15.5286	811.3209	-42.8966	324.2119	46.8251	767.9793	-0.0592	0.0182	-0.0073	-0.0462	0.0165	0.9585
1.8349	-0.019077	0.43762	0.98188	-0.095101	-0.84418	0.9387	-13.9999	805.0286	-42.4085	321.0467	45.3407	757.0435	-0.0592	0.0182	-0.0073	-0.0462	0.0165	0.9585
1.8517	0.075446	0.32548	0.86648	-0.084167	-0.74311	0.77084	-13.2427	806.5746	-41.6575	321.1161	43.9646	753.6784	-0.0592	0.0182	-0.0073	-0.0462	0.0165	0.9585
1.8686	0.12993	0.25681	0.7797	-0.086153	-0.6685	0.68668	-12.2944	814.2673	-40.9743	323.7339	42.605	755.9469	-0.0592	0.0182	-0.0073	-0.0462	0.0165	0.9585
1.8854	0.14134	0.20819	0.73865	-0.086316	-0.64412	0.6438	-10.4654	825.7501	-40.4917	327.9345	41.0996	761.3966	-0.0592	0.0182	-0.0073	-0.0462	0.0165	0.9585
1.9023	0.087273	0.11975	0.76732	-0.057862	-0.70709	0.56853	-7.4125	838.5308	-40.2478	332.6864	39.339	767.5973	-0.0592	0.0182	-0.0073	-0.0462	0.0165	0.9585
1.9191	-0.057925	-0.10896	0.88972	0.037835	-0.89917	0.3377	-3.1592	850.5769	-40.2577	337.1379	37.3457	772.7101	-0.0592	0.0182	-0.0073	-0.0462	0.0165	0.9585
1.936	-0.30554	-0.58057	1.119	0.24001	-1.248	-0.18935	1.9925	860.763	-40.4678	340.8079	35.1991	775.8281	-0.0592	0.0182	-0.0073	-0.0462	0.0165	0.9585
1.9529	-0.64887	-1.3971	1.4558	0.57949	-1.7572	-1.1016	7.5649	868.8878	-40.7474	343.5967	32.9889	776.9295	-0.0592	0.0182	-0.0073	-0.0462	0.0165	0.9585
1.9697	-1.0347	-2.5675	1.8447	1.0543	-2.3474	-2.3783	13.0018	875.3007	-40.9592	345.6326	30.8356	776.5039	-0.0592	0.0182	-0.0073	-0.0462	0.0165	0.9585
1.9866	-1.3226	-3.9205	2.1485	1.5992	-2.8083	-3.8386	17.8307	880.452	-40.966	347.0957	28.8166	775.1109	-0.0592	0.0182	-0.0073	-0.0462	0.0165	0.9585
2.0034	-1.2411	-5.0145	2.1279	2.0381	-2.7629	-5.0217	21.7473	884.6237	-40.659	348.1074	26.955	773.1134	-0.0592	0.0182	-0.0073	-0.0462	0.0165	0.9585
2.0203	-0.38611	-4.9807	1.3963	2.0245	-1.6189	-5.0183	24.6015	887.7788	-40.0334	348.6567	25.2867	770.5784	-0.0592	0.0182	-0.0073	-0.0462	0.0165	0.9585
2.0371	1.7667	-2.453	-0.56232	1.0083	1.412	-2.3722	26.3476	889.3445	-39.1987	348.5056	23.8848	767.1094	-0.0592	0.0182	-0.0073	-0.0462	0.0165	0.9585
2.054	5.7674	4.4088	-4.3043	-1.7579	7.1761	4.901	27.0571	888.263	-38.3649	347.2153	22.8719	761.8698	-0.0592	0.0182	-0.0073	-0.0462	0.0165	0.9585
2.0709	11.9589	17.6424	-10.2263	-7.1009	16.2552	19.0139	26.8898	883.4009	-37.7897	344.3186	22.378	753.9328	-0.0592	0.0182	-0.0073	-0.0462	0.0165	0.9585
2.0877	20.0128	38.7659	-18.1683	-15.6367	28.3441	41.6376	26.0626	873.8761	-37.652	339.4702	22.4463	742.5487	-0.0592	0.0182	-0.0073	-0.0462	0.0165	0.9585
2.1046	28.0864	67.6029	-26.9361	-27.29	41.4019	72.6805	24.833	859.2099	-37.977	332.5139	22.9892	727.2642	-0.0592	0.0182	-0.0073	-0.0462	0.0165	0.9585
2.1214	32.5847	101.3491	-34.1759	-40.9016	51.4414	109.3371	23.4612	839.3882	-38.6002	323.5112	23.7827	707.996	-0.0592	0.0182	-0.0073	-0.0462	0.0165	0.9585
2.1383	31.4505	137.0423	-37.5161	-55.2101	55.0368	148.7787	22.182	814.8147	-39.1943	312.7143	24.5026	684.9923	-0.0592	0.0182	-0.0073	-0.0462	0.0165	0.9585
2.1551	25.6902	174.4897	-36.4265	-70.0678	51.8956	191.0757	21.1526	786.0643	-39.3809	300.4421	24.8213	658.6632	-0.0592	0.0182	-0.0073	-0.0462	0.0165	0.9585
2.172	16.9773	213.534	-31.4646	-85.4152	43.1902	236.0255	20.3865	753.3013	-38.8269	286.842	24.504	629.1353	-0.0592	0.0182	-0.0073	-0.0462	0.0165	0.9585
2.1889	7.0553	251.3685	-23.8053	-100.2238	30.9052	280.2914	19.6991	716.1968	-37.2026	271.8575	23.3935	596.1884	-0.0592	0.0182	-0.0073	-0.0462	0.0165	0.9585
2.2057	-2.4924	284.1464	-15.5678	-113.105	18.1576	319.3639	18.8279	674.4902	-34.2349	255.4326	21.4022	559.6686	-0.0592	0.0182	-0.0073	-0.0462	0.0165	0.9585
2.2226	-11.2013	311.9299	-8.614	-124.1495	7.323	352.9997	17.6018	628.4842	-29.8795	237.6824	18.5768	519.8708	-0.0592	0.0182	-0.0073	-0.0462	0.0165	0.9585
2.2394	-19.1013	339.3028	-3.4979	-135.1108	-0.94499	385.9159	16.0159	579.1693	-24.3881	218.9364	15.1048	477.6173	-0.0592	0.0182	-0.0073	-0.0462	0.0165	0.9585
2.2563	-26.225	370.8606	0.4866	-147.6828	-7.4172	422.8576	14.1702	528.0375	-18.2752	199.6851	11.3003	434.1521	-0.0592	0.0182	-0.0073	-0.0462	0.0165	0.9585
2.2731	-32.3432	408.3818	4.3612	-162.4691	-13.1782	465.3964	12.1963	476.7742	-12.1281	180.4897	7.5097	390.8962	-0.0592	0.0182	-0.0073	-0.0462	0.0165	0.9585
2.29	-37.093	451.1575	8.8269	-179.1605	-18.9472	512.3945	10.2284	426.7458	-6.4794	161.8007	4.0448	349.0073	-0.0592	0.0182	-0.0073	-0.0462	0.0165	0.9585
2.3069	-40.2612	497.472	14.0323	-197.1116	-24.8903	561.7702	8.3525	378.6758	-1.7562	143.8315	1.1537	309.0961	-0.0592	0.0182	-0.0073	-0.0462	0.0165	0.9585
2.3237	-41.8826	545.3658	19.6693	-215.6123	-30.7502	611.3642	6.5758	332.671	1.7531	126.5734	-0.97726	271.2335	-0.0592	0.0182	-0.0073	-0.0462	0.0165	0.9585
2.3406	-42.2296	592.9149	25.2981	-233.9719	-36.182	659.2343	4.8194	288.6061	3.8979	109.9542	-2.2005	235.2699	-0.0592	0.0182	-0.0073	-0.0462	0.0165	0.9585
